# xmcd
#
# Track frame offsets:
#	150
#	22802
#	42172
#	68114
#	98429
#	124611
#	147448
#	167325
#	178530
#	202941
#	218948
#	240046
#	261483
#	275500
#	300502
#
# Disc length: 4402 seconds
#
# Revision: 4
# Processed by: cddbd v1.5.1PL0 Copyright (c) Steve Scherf et al.
# Submitted via: dBpowerAMP V4.0
#
DISCID=c011300f
DTITLE=Locomotiv GT - Romantic Ballads
DYEAR=1998
DGENRE=Progressive Rock
TTITLE0=Lincoln Festival Blues
TTITLE1=Lady Of The Night
TTITLE2=Hey, I'm Speaking
TTITLE3=Endless Rain
TTITLE4=And The Doctor Came
TTITLE5=One Song For No One
TTITLE6=Pivot
TTITLE7=Serenade To My Love
TTITLE8=Motor City Love
TTITLE9=Apple Dance
TTITLE10=I Love You Warsaw
TTITLE11=Blue Woman
TTITLE12=Royal Blues
TTITLE13=AZT Hittem
TTITLE14=I Write A Song For You
EXTD=
EXTT0=
EXTT1=
EXTT2=
EXTT3=
EXTT4=
EXTT5=
EXTT6=
EXTT7=
EXTT8=
EXTT9=
EXTT10=
EXTT11=
EXTT12=
EXTT13=
EXTT14=
PLAYORDER=
